<svg width="80" height="80" viewBox="0 0 80 80" fill="none" xmlns="http://www.w3.org/2000/svg">
<rect width="80" height="80" fill="#1E1E1E"/>
<path fill-rule="evenodd" clip-rule="evenodd" d="M2 73C2 75.7614 4.23858 78 7 78H74C76.7614 78 79 75.7614 79 73V10.7563C79 9.32177 78.3838 7.9563 77.3081 7.00715L71.9176 2.25081C71.0041 1.44478 69.8277 1 68.6095 1H7C4.23858 1 2 3.23858 2 6V73Z" fill="#D9D9D9"/>
<path d="M68.5 10V1.5H6L2 4V74L6 78.5H75L78.5 74V10H68.5Z" stroke="#0D0D0D" stroke-width="3" stroke-linejoin="round"/>
<path d="M18.5 22H65M18.5 39.5H65M18.5 58.5H65M18.5 49H65M18.5 30.5H65" stroke="#0D0D0D" stroke-width="3" stroke-linejoin="round"/>
</svg>
